<?xml version="1.0" encoding="UTF-8" standalone="no"?>
<!-- Created with Inkscape (http://www.inkscape.org/) -->

<svg
   width="357.18799mm"
   height="357.18799mm"
   viewBox="0 0 357.18799 357.18798"
   version="1.1"
   id="svg1"
   xml:space="preserve"
   inkscape:version="1.4.4 (dcaf3e7, 2026-05-05)"
   sodipodi:docname="logo.svg"
   xmlns:inkscape="http://www.inkscape.org/namespaces/inkscape"
   xmlns:sodipodi="http://sodipodi.sourceforge.net/DTD/sodipodi-0.dtd"
   xmlns="http://www.w3.org/2000/svg"
   xmlns:svg="http://www.w3.org/2000/svg"><sodipodi:namedview
     id="namedview1"
     pagecolor="#505050"
     bordercolor="#eeeeee"
     borderopacity="1"
     inkscape:showpageshadow="0"
     inkscape:pageopacity="0"
     inkscape:pagecheckerboard="0"
     inkscape:deskcolor="#505050"
     inkscape:document-units="mm"
     inkscape:zoom="1.0267829"
     inkscape:cx="521.04489"
     inkscape:cy="886.75023"
     inkscape:window-width="1920"
     inkscape:window-height="1017"
     inkscape:window-x="-8"
     inkscape:window-y="32"
     inkscape:window-maximized="1"
     inkscape:current-layer="layer1" /><defs
     id="defs1" /><g
     inkscape:label="Layer 1"
     inkscape:groupmode="layer"
     id="layer1"
     transform="translate(73.554169,-81.094795)"><g
       id="g4"
       style="display:inline"><path
         style="fill:#ec2129"
         d="m -73.475861,326.84004 0.125908,-0.21168 3.749858,-6.60855 3.749859,-6.60855 0.315221,-0.20042 0.315221,-0.20042 1.07391,-0.004 1.073909,-0.004 0.434088,0.33073 0.434088,0.33073 3.603646,6.3102 3.603647,6.3102 0.142184,0.37053 0.142185,0.37053 h -1.745837 -1.745837 l -0.821269,-1.45521 -0.821269,-1.45521 h -4.455867 -4.455867 l -0.744397,1.38906 -0.744397,1.38907 -1.677445,0.0794 -1.677446,0.0794 z m 11.827942,-5.77044 v -0.39939 l -1.226103,-2.26766 -1.226103,-2.26766 -0.341322,0.35194 -0.341321,0.35195 -1.074687,1.98437 -1.074687,1.98438 -0.0037,0.33073 -0.0037,0.33073 h 2.645833 2.645833 z m 11.641667,-0.89522 v -6.85086 l 0.418515,-0.1606 0.418514,-0.1606 h 0.872005 0.872006 l 0.291233,0.35092 0.291234,0.35091 0.07189,5.27148 0.07189,5.27148 5.027083,0.13229 5.027083,0.1323 0.08064,1.25677 0.08064,1.25677 h -6.761372 -6.761372 z m 18.25625,0.1569 v -6.69396 l 0.3175,-0.3175 0.3175,-0.3175 h 0.851485 0.851486 l 0.418514,0.1606 0.418515,0.1606 0.0041,5.19721 0.0041,5.19722 0.206269,0.32469 0.20627,0.32469 5.0152,0.0722 5.0152,0.0722 0.08064,1.25677 0.08064,1.25677 h -6.893664 -6.893663 z m 28.8395833,0 v -6.69396 l 0.3175,-0.3175 0.3175,-0.3175 h 0.8514854 0.8514854 l 0.4185146,0.1606 0.4185146,0.1606 v 6.85086 6.85086 h -1.5875 -1.5875 z m 10.31875,-0.0205 v -6.71448 l 0.3975314,-0.32992 0.3975315,-0.32992 0.8215771,0.16431 0.8215771,0.16432 5.3888456,4.49883 5.388847,4.49884 h 0.13892 0.13892 v -4.46961 -4.46961 l 0.418515,-0.1606 0.418515,-0.1606 h 0.618179 0.618179 l 0.418514,0.1606 0.418515,0.1606 v 6.85086 6.85086 h -1.093297 -1.093298 l -5.361661,-4.49792 -5.361662,-4.49792 h -0.291916 -0.291916 v 4.49792 4.49792 H 8.8635396 7.4083313 Z m 24.7007057,6.45935 -0.567002,-0.23604 -0.425185,-0.60704 -0.425185,-0.60703 v -5.08328 -5.08328 l 0.251918,-0.6626 0.251918,-0.66259 0.607978,-0.34682 0.607977,-0.34682 h 5.714244 5.714243 l 0.672677,0.3598 0.672678,0.3598 0.293808,0.64484 0.293809,0.64484 v 1.16886 1.16887 l -0.511773,0.27389 -0.511773,0.27389 h -1.060514 -1.060514 l -0.08136,-1.12447 -0.08136,-1.12448 H 38.23229 33.998956 v 4.23333 4.23333 h 4.233334 4.233333 l 0.132292,-1.32291 0.132291,-1.32292 0.90203,0.0887 0.902029,0.0887 0.619325,0.23546 0.619325,0.23547 v 1.5793 1.57929 l -0.638087,0.74236 -0.638087,0.74236 -5.910351,0.0566 -5.91035,0.0566 z m 20.45485,0.0787 -0.176389,-0.17639 v -6.4193 -6.41929 l 0.415774,-0.41577 0.415774,-0.41578 h 1.007037 1.007038 l 0.291233,0.35092 0.291234,0.35091 0.07189,5.27148 0.07189,5.27148 5.027083,0.13229 5.027084,0.1323 0.08064,1.25677 0.08064,1.25677 H 59.45755 52.740276 Z m 19.192585,-0.0938 -0.607068,-0.25062 -0.38512,-0.92172 -0.385119,-0.92173 v -5.51183 -5.51183 l 0.3175,-0.3175 0.3175,-0.3175 h 0.851485 0.851485 l 0.418515,0.1606 0.418515,0.1606 0.0041,5.19721 0.0041,5.19722 0.214188,0.3375 0.214189,0.33751 4.345822,-0.0729 4.345823,-0.0729 0.07189,-5.27148 0.07189,-5.27148 0.291233,-0.35091 0.291234,-0.35092 h 0.872005 0.872005 l 0.418515,0.1606 0.418514,0.1606 v 6.04235 6.04236 l -0.638109,0.74236 -0.638109,0.74236 -6.174911,0.0564 -6.174912,0.0564 z m 22.529648,0.0149 -0.567002,-0.23592 -0.425185,-0.60704 -0.425185,-0.60703 v -0.97078 -0.97078 l 0.727604,-0.17354 0.727604,-0.17354 0.469817,-0.13971 0.469817,-0.13972 0.28367,0.81374 0.28367,0.81373 h 4.70831 4.70831 l 0.1606,-0.41851 0.1606,-0.41851 v -0.72155 -0.72154 l -0.33073,-0.43631 -0.33073,-0.43631 -5.116686,-0.0773 -5.116685,-0.0773 -0.661482,-0.76965 -0.661482,-0.76966 0.08963,-2.62755 0.08963,-2.62754 0.599121,-0.48475 0.599121,-0.48475 1.696373,-0.18167 1.696374,-0.18166 4.066236,0.0949 4.06623,0.0949 0.70275,0.46052 0.70275,0.46052 0.27327,0.98969 0.27326,0.98968 -0.32628,0.32347 -0.32629,0.32347 -1.10211,0.1748 -1.10212,0.17479 -0.0885,-0.62555 -0.0885,-0.62555 -4.34582,-0.0729 -4.345822,-0.0729 -0.214189,0.33751 -0.214189,0.3375 -0.0041,0.8275 -0.0041,0.8275 0.337797,0.28035 0.337798,0.28034 5.109615,0.0828 5.10962,0.0828 0.638,0.74236 0.638,0.74236 v 2.61632 2.61633 l -0.6381,0.74236 -0.63809,0.74236 -6.04264,0.0565 -6.042625,0.0565 z m 20.80763,-6.59561 v -6.85086 l 0.41851,-0.1606 0.41852,-0.1606 h 0.75047 0.75047 l 0.41851,0.1606 0.41852,0.1606 v 6.85086 6.85086 h -1.5875 -1.5875 z m 11.03189,0.0704 -3.91707,-6.79645 0.34519,-0.21894 0.3452,-0.21895 1.25936,-0.004 1.25936,-0.004 0.39303,0.46302 0.39302,0.46302 2.44866,4.36563 2.44865,4.36562 0.26458,-0.005 0.26459,-0.005 2.46361,-4.61955 2.46361,-4.61954 0.31451,-0.19998 0.31452,-0.19998 h 0.92604 0.92604 l 0.37243,0.23578 0.37243,0.23577 -3.69966,6.70549 -3.69966,6.70549 -1.17068,0.0741 -1.17069,0.0741 z m 17.54311,0.0865 v -6.69396 l 0.3175,-0.3175 0.3175,-0.3175 h 6.40773 6.40774 l 0.41851,0.1606 0.41852,0.1606 v 1.03003 1.03002 h -5.00545 -5.00544 l -0.41851,0.1606 -0.41852,0.1606 v 1.4269 1.4269 h 3.03767 3.03767 l 0.16076,0.64053 0.16076,0.64053 -0.0925,0.48395 -0.0925,0.48395 -3.0398,0.13229 -3.03981,0.13229 -0.0788,1.65365 -0.0788,1.65364 h 5.25138 5.25137 l 0.3175,0.3175 0.3175,0.3175 v 1.00542 1.00542 h -7.27604 -7.27604 z m 30.95625,-0.18017 v -6.87412 l 0.63605,-0.15964 0.63606,-0.15964 5.91238,0.0884 5.91238,0.0885 0.58925,0.3368 0.58925,0.33679 0.30042,0.56133 0.30041,0.56133 0.0134,2.40917 0.0134,2.40917 -0.19422,0.59821 -0.19421,0.59822 -0.76186,0.39397 -0.76186,0.39397 H 186.56 185.50414 l -0.15215,0.24619 -0.15215,0.24619 2.78237,2.28844 2.78237,2.28844 v 0.1112 0.11121 h -2.19813 -2.19813 l -2.84195,-2.65921 -2.84194,-2.65921 -1.37607,0.0795 -1.37607,0.0795 -0.0757,2.57969 -0.0757,2.57969 h -1.57792 -1.57792 z m 11.331,-1.02929 0.35079,-0.2224 0.14195,-1.05833 0.14195,-1.05832 -0.30361,-0.56731 -0.30362,-0.5673 H 181.89173 177.8 v 1.85208 1.85208 l 3.9026,-0.004 3.90261,-0.004 z m 10.10025,1.20946 v -6.69396 l 0.3175,-0.3175 0.3175,-0.3175 h 6.40773 6.40774 l 0.41851,0.1606 0.41852,0.1606 v 1.03003 1.03002 h -5.00545 -5.00544 l -0.41851,0.1606 -0.41852,0.1606 v 1.4185 1.41851 l 3.10886,0.0745 3.10885,0.0745 v 1.05834 1.05833 l -3.04271,0.13229 -3.04271,0.13229 -0.0788,1.65365 -0.0788,1.65364 h 5.25138 5.25137 l 0.3175,0.3175 0.3175,0.3175 v 1.00542 1.00542 h -7.27604 -7.27604 z m 18.83751,4.77573 1.08359,-1.91823 2.77282,-4.89479 2.77282,-4.89479 0.29736,-0.19439 0.29736,-0.19439 1.07391,-0.004 1.07391,-0.004 0.44312,0.33073 0.44313,0.33073 3.82702,6.68073 3.82702,6.68073 h -1.81891 -1.81891 l -0.83259,-1.45521 -0.83258,-1.45521 h -4.48137 -4.48138 l -0.7137,1.45521 -0.7137,1.45521 h -1.65125 -1.65125 z m 10.79582,-4.0742 v -0.43619 l -1.20736,-2.21492 -1.20735,-2.21493 -0.23979,0.1482 -0.2398,0.1482 -1.19868,2.19902 -1.19869,2.19902 v 0.30389 0.30389 h 2.64584 2.64583 z m 11.64167,-0.85843 v -6.85086 l 0.41851,-0.1606 0.41852,-0.1606 0.83825,0.004 0.83826,0.004 0.32508,0.20651 0.32508,0.20651 0.0718,5.41184 0.0718,5.41183 5.02708,0.13229 5.02709,0.1323 0.0806,1.25677 0.0806,1.25677 h -6.76137 -6.76137 z m 18.25625,1.17071 v -5.68014 l -3.10886,-0.0745 -3.10885,-0.0746 -0.0842,-0.87718 -0.0842,-0.87718 0.31504,-0.37959 0.31503,-0.37959 h 7.47583 7.47583 l 0.31503,0.37959 0.31504,0.37959 -0.0842,0.87718 -0.0842,0.87718 -3.10885,0.0746 -3.10886,0.0745 v 5.68014 5.68015 h -1.71979 -1.71979 z m 17.63889,5.50376 -0.17639,-0.17639 v -2.99907 -2.99907 l -3.24115,-3.44476 -3.24114,-3.44475 v -0.3251 -0.3251 l 1.70694,-0.0802 1.70695,-0.0802 2.53044,2.67783 2.53044,2.67783 2.52022,-2.67969 2.52022,-2.67969 1.64291,0.0593 1.64292,0.0593 v 0.16617 0.16617 l -3.43959,3.62151 -3.43958,3.62151 v 3.18036 3.18036 h -1.5434 -1.5434 z m -239.373993,-24.36372 -3.030872,-2.05052 -1.983159,-1.49857 -1.98316,-1.49857 -2.536922,-2.12139 -2.536922,-2.1214 -2.759953,-2.73003 -2.759954,-2.73004 -2.09288,-2.51354 -2.092881,-2.51354 -1.567629,-2.38125 -1.5676287,-2.38125 -1.1322275,-2.24896 -1.1322275,-2.24896 -0.7926404,-2.24895 -0.7926405,-2.24896 -0.4578089,-2.06205 -0.4578088,-2.06205 0.1269318,-3.75879 0.1269319,-3.75878 0.4382032,-1.5875 0.4382033,-1.5875 1.0120505,-2.11666 1.0120505,-2.11667 1.1059236,-1.39159 1.1059235,-1.39159 1.513203,-1.21285 1.513202,-1.21286 2.116667,-1.02801 2.116667,-1.02801 1.719791,-0.4473 1.719792,-0.4473 2.248958,0.004 2.248959,0.004 1.71527,0.46115 1.71527,0.46115 1.563967,0.77597 1.563966,0.77596 1.322109,0.97052 1.322109,0.97052 1.087196,1.50545 1.087196,1.50545 0.450715,0.82589 0.450715,0.8259 0.210743,-0.008 0.210744,-0.008 0.926041,-1.61679 0.926042,-1.6168 1.410895,-1.41112 1.410895,-1.41111 1.36723,-0.77701 1.36723,-0.77701 1.719792,-0.57764 1.719791,-0.57764 3.044612,-0.14116 3.044612,-0.14116 2.114763,0.57781 2.114763,0.57782 1.455209,0.81604 1.455208,0.81604 1.481277,1.1609 1.481276,1.16091 1.330318,1.6461 1.330318,1.6461 0.924434,1.85209 0.924434,1.85208 0.422206,1.46513 0.422206,1.46513 0.281545,2.48536 0.281546,2.48537 -0.288749,2.62409 -0.28875,2.6241 -0.65875,2.28895 -0.65875,2.28895 -1.457209,3.04271 -1.457208,3.04271 -1.939309,2.91041 -1.939309,2.91042 -2.547366,2.96135 -2.547366,2.96135 -2.840064,2.60677 -2.840063,2.60678 -3.175,2.51467 -3.175,2.51466 -2.248959,1.60759 -2.248958,1.6076 -1.308571,0.8268 -1.308571,0.82681 H 37.17525 36.883269 Z"
         id="path5" /><path
         style="fill:#2a3791"
         d="m -64.167624,305.31943 -0.169684,-0.27455 0.881674,-0.98362 0.881674,-0.98361 49.842751,-55.37307 49.84275,-55.37306 0.168467,0.0765 0.168467,0.0765 7.800241,8.16882 7.80024,8.16882 3.836459,4.0316 3.836458,4.03161 7.9375,8.28161 7.9375,8.2816 3.284208,3.46276 3.284209,3.46276 2.684961,2.77812 2.684961,2.77813 5.6658,5.95312 5.665801,5.95313 4.010737,4.16719 4.01075,4.16718 h 0.29833 0.29834 l -0.0691,-11.04635 -0.0691,-11.04635 -2.76284,-0.076 -2.76285,-0.076 -0.34601,-0.28716 -0.34601,-0.28717 0.004,-7.1775 0.004,-7.17749 0.21123,-0.33272 0.21123,-0.33272 16.7842,0.0681 16.78419,0.0681 v 7.67292 7.67291 l -2.76861,0.076 -2.76862,0.076 -0.2039,0.32084 -0.20389,0.32085 -0.004,22.45577 -0.004,22.45576 2.05843,2.15049 2.05843,2.15048 5.37049,5.61435 5.37049,5.61435 -0.1685,0.27263 -0.16849,0.27263 H 133.4106 122.12536 l -1.73106,-1.78594 -1.73106,-1.78594 -5.44331,-5.82083 -5.44331,-5.82083 -4.05996,-4.36563 -4.059948,-4.36562 -5.444503,-5.81372 -5.444503,-5.81372 -3.720238,-3.97587 -3.720239,-3.97586 -3.80447,-4.10104 -3.804469,-4.10104 -2.135705,-2.24896 -2.135705,-2.24896 -5.420837,-5.81047 -5.420837,-5.81048 -4.497916,-4.74382 c -2.560482,-2.59879 -4.995618,-5.30781 -7.408334,-8.04187 l -4.619918,-4.93709 -4.619918,-4.9371 -0.31829,0.0748 -0.31829,0.0748 -7.503684,8.33438 -7.503683,8.33437 -32.236115,35.85104 -32.236115,35.85104 -1.018519,0.99219 -1.018519,0.99219 h -9.651922 -9.651922 z m 222.539644,-0.14122 -0.41577,-0.41577 0.004,-37.88266 0.004,-37.88266 0.21533,-0.33935 0.21533,-0.33935 41.65093,0.0959 41.65093,0.0959 1.99702,0.41897 1.99702,0.41897 1.57486,0.45142 1.57485,0.45143 1.8659,0.90254 1.86589,0.90255 1.34239,1.17429 1.34239,1.17428 0.82545,1.28636 0.82546,1.28636 0.58687,1.56614 0.58687,1.56615 0.0915,11.35943 0.0915,11.35943 -0.29986,1.77782 -0.29987,1.77782 -0.76472,1.61699 -0.76472,1.617 -0.86324,1.07419 -0.86324,1.07418 -1.72592,1.12687 -1.72592,1.12688 -1.32292,0.54421 -1.32291,0.54421 -1.88724,0.42212 -1.88724,0.42212 -3.00755,0.2662 -3.00756,0.26621 -1.65364,0.002 -1.65365,0.002 v 0.23531 0.23531 l 20.83594,13.70295 20.83594,13.70296 0.48028,0.40586 0.48028,0.40587 -0.48028,0.18936 -0.48028,0.18936 -15.88521,0.0186 -15.8852,0.0186 -0.91584,-0.48031 -0.91584,-0.4803 -19.55439,-13.93949 -19.5544,-13.93948 h -11.33571 -11.33571 v 14.1459 14.14589 l -0.51177,0.2739 -0.51177,0.27389 H 169.63421 158.7878 Z m 72.08006,-42.32911 1.71979,-0.40374 0.95084,-0.62708 0.95084,-0.62707 0.50437,-1.0158 0.50437,-1.01579 0.0812,-6.08542 0.0812,-6.08542 -0.30345,-1.08672 -0.30345,-1.08671 -0.6485,-0.69939 -0.64851,-0.69938 -1.02557,-0.5232 -1.02557,-0.52321 -1.80784,-0.27612 -1.80784,-0.27613 -23.01875,0.0719 -23.01875,0.0719 -0.0692,10.64948 -0.0691,10.64948 23.61707,-0.004 23.61706,-0.004 z"
         id="path4"
         sodipodi:nodetypes="ccccccccccccccccccccccccccccccccccccccccccccccccccccccccccccccccccccccccccccccccccccccccccccccccccccccccccccccccccccccccccccccccccccccccccccccccccccccccccccccccccccccc" /></g></g></svg>
